<svg width="431" height="133" viewBox="0 0 431 133" fill="none" xmlns="http://www.w3.org/2000/svg">
<path d="M71.3008 0.0898438H80.0898C104.048 0.0898438 118.339 8.19531 122.961 24.4062C124.523 29.7448 125.305 35.8646 125.305 42.7656V133H71.3008V0.0898438ZM0.402344 0.0898438H52.9414V133H0.402344V0.0898438ZM220.324 0.0898438H274.523V37.0039H264.367C246.724 37.0039 234.68 34.237 228.234 28.7031C222.961 24.1458 220.324 16.7891 220.324 6.63281V0.0898438ZM150.891 0.0898438H203.43V53.6055H242.59V79.0938H203.43V132.805H150.891V0.0898438ZM220.227 123.527C220.227 110.051 228.039 100.904 243.664 96.0859C249.654 94.263 257.368 93.3516 266.809 93.3516H274.523V133H220.227V123.527ZM370.422 0.0898438H378.039C402.193 0.0898438 418.143 10.8646 425.891 32.4141C429.016 41.2682 430.578 51.457 430.578 62.9805C430.578 82.3815 426.835 98.3646 419.348 110.93C410.493 125.643 396.724 133 378.039 133H370.422V0.0898438ZM346.887 133C322.863 133 306.945 120.826 299.133 96.4766C295.943 86.5807 294.348 75.4154 294.348 62.9805C294.348 37.6549 301.379 19.7839 315.441 9.36719C323.71 3.18229 334.191 0.0898438 346.887 0.0898438H354.504V133H346.887Z" fill="#F0F0F0"/>
</svg>
