<svg width="159" height="48" viewBox="0 0 159 48" fill="none" xmlns="http://www.w3.org/2000/svg">
<path d="M26.0234 15.0586C26.0234 9.80859 27.3594 6.02344 30.0312 3.70312C32.7734 1.33594 37.168 0.152344 43.2148 0.152344H45.3594V25.4297C45.3594 36.3281 42.2422 43.3125 36.0078 46.3828C33.8281 47.4609 31.2148 48 28.168 48H26.0234V15.0586ZM17.7266 48C11.8438 48 7.46094 45.9492 4.57812 41.8477C1.90625 38.0508 0.570312 32.5781 0.570312 25.4297V0.152344H2.71484C8.76172 0.152344 13.1562 1.33594 15.8984 3.70312C18.5703 6.02344 19.9062 9.80859 19.9062 15.0586V48H17.7266ZM55.5195 0.152344H74.4336V48H55.5195V0.152344ZM110.012 0.152344H113.176C121.801 0.152344 126.945 3.07031 128.609 8.90625C129.172 10.8281 129.453 13.0312 129.453 15.5156V48H110.012V0.152344ZM84.4883 0.152344H103.402V48H84.4883V0.152344ZM139.543 0.152344H158.457V48H139.543V0.152344Z" fill="black"/>
</svg>
